# xmcd CD database file
#
# Track frame offsets:
#	150
#	10948
#	19715
#	30486
#	45498
#	55638
#	66297
#	84485
#	102387
#	125684
#	140523
#	152226
#	169062
#	191126
#	204438
#	222470
#	235429
#	243779
#	257907
#	274066
#	291481
#	313132
#	324499
#
# Disc length: 4550 seconds
#
# Revision: 0
# Processed by: cddbd v1.5.1PL0 Copyright (c) Steve Scherf et al.
# Submitted via: CDex 1.51
#
DISCID=5611c417
DTITLE=Simon and Garfunkel - The Best Of Simon And Garfunkel Disc 2 of 2
DYEAR=2003
DGENRE=Country
TTITLE0=A hazy shade of winter
TTITLE1=The 59th street bridge song
TTITLE2=At the zoo
TTITLE3=Fakin it
TTITLE4=Punky's dilemma
TTITLE5=You don't know where your interest lies
TTITLE6=Mrs Robinson
TTITLE7=Old friend/bookend
TTITLE8=The boxer
TTITLE9=Baby driver
TTITLE10=Keep the customer satisfied
TTITLE11=So long frank lloyd wright
TTITLE12=Bridge over troubled water
TTITLE13=Cecilia
TTITLE14=The only living boy in New York
TTITLE15=Bye bye love
TTITLE16=Song for the asking
TTITLE17=El condor pasa (if I could)
TTITLE18=America
TTITLE19=My little town
TTITLE20=A pom on the under ground wall (live)
TTITLE21=Anji (live)
TTITLE22=A church is burning
EXTD=YEAR: 2003
EXTT0=
EXTT1=
EXTT2=
EXTT3=
EXTT4=
EXTT5=
EXTT6=
EXTT7=
EXTT8=
EXTT9=
EXTT10=
EXTT11=
EXTT12=
EXTT13=
EXTT14=
EXTT15=
EXTT16=
EXTT17=
EXTT18=
EXTT19=
EXTT20=
EXTT21=
EXTT22=
PLAYORDER=
